inDegrees=yes
name=ik_coleta1_trike_mov
DataType=double
version=3
OpenSimVersion=4.4-2022-07-23-0e9fedc
endheader
time	pelvis_tilt	pelvis_tx	pelvis_ty	hip_flexion_r	knee_angle_r	ankle_angle_r	hip_flexion_l	knee_angle_l	ankle_angle_l	lumbar_extension	gearToGround_coord_0	rightPedalToGear_coord_0	leftPedalToGear_coord_0
26.83844995498657	52.5	-0.7	0.0500000000000003	87.29505908152204	-47.69948826507203	-1.039076492892845e-12	80.38799999999991	-84.66000000000004	5.05043721578303e-13	2.071017320375504e-12	0	-114.0000000000003	-139.067795130823
26.84745693206787	52.5	-0.7	0.0500000000000003	87.29442448996463	-51.3376479844421	-1.039076492892845e-12	80.38799999999991	-84.66000000000004	5.05043721578303e-13	2.071017320375504e-12	0	-114.0000000000003	-139.067795130823
26.85844874382019	52.5	-0.7	0.0500000000000003	87.29405284194469	-51.60209865475848	-1.039076492892845e-12	80.38799999999991	-84.66000000000004	5.05043721578303e-13	2.071017320375504e-12	0	-114.0000000000003	-139.067795130823
26.86244606971741	52.5	-0.7	0.0500000000000003	85.53922603053944	-49.85513591449883	-1.039076492892845e-12	80.38799999999991	-84.66000000000004	5.05043721578303e-13	2.071017320375504e-12	0	-114.0000000000003	-139.067795130823
26.8684389591217	52.5	-0.7	0.0500000000000003	85.53914499579169	-50.69044196050879	-1.039076492892845e-12	80.38799999999991	-84.66000000000004	5.05043721578303e-13	2.071017320375504e-12	0	-114.0000000000003	-139.067795130823
26.88045215606689	52.5	-0.7	0.0500000000000003	84.35450143645528	-49.50570175100352	-1.039076492892845e-12	80.38799999999991	-84.66000000000004	5.05043721578303e-13	2.071017320375504e-12	0	-114.0000000000003	-139.067795130823
26.8874397277832	52.5	-0.7	0.0500000000000003	81.02553907275431	-46.17673888058295	-1.039076492892845e-12	80.38799999999991	-84.66000000000004	5.05043721578303e-13	2.071017320375504e-12	0	-114.0000000000003	-139.067795130823
26.89844083786011	52.5	-0.7	0.0500000000000003	79.49631725204711	-44.64751760970578	-1.039076492892845e-12	80.38799999999991	-84.66000000000004	5.05043721578303e-13	2.071017320375504e-12	0	-114.0000000000003	-139.067795130823
26.90450501441956	52.5	-0.7	0.0500000000000003	79.49591892965724	-48.69813315965509	-1.039076492892845e-12	80.38799999999991	-84.66000000000004	5.05043721578303e-13	2.071017320375504e-12	0	-114.0000000000003	-139.067795130823
26.90844392776489	52.5	-0.7	0.0500000000000003	77.04626306226071	-46.24800298434287	-1.039076492892845e-12	80.38799999999991	-84.66000000000004	5.05043721578303e-13	2.071017320375504e-12	0	-114.0000000000003	-139.067795130823
26.91345500946045	52.5	-0.7	0.0500000000000003	77.04545753580734	-46.53694131723041	-1.039076492892845e-12	80.38799999999991	-84.66000000000004	5.05043721578303e-13	2.071017320375504e-12	0	-114.0000000000003	-139.067795130823
26.92246794700623	52.5	-0.7	0.0500000000000003	77.04529070363139	-46.89322897843913	-1.039076492892845e-12	80.38799999999991	-84.66000000000004	5.05043721578303e-13	2.071017320375504e-12	0	-114.0000000000003	-139.067795130823
26.92645502090454	52.5	-0.7	0.0500000000000003	71.83394273457888	-41.69247832547254	-1.039076492892845e-12	80.38799999999991	-84.66000000000004	5.05043721578303e-13	2.071017320375504e-12	0	-114.0000000000003	-139.067795130823
26.93345308303833	52.5	-0.7	0.0500000000000003	71.83389954079206	-42.13498720930264	-1.039076492892845e-12	80.38799999999991	-84.66000000000004	5.05043721578303e-13	2.071017320375504e-12	0	-114.0000000000003	-139.067795130823
26.93849277496338	52.5	-0.7	0.0500000000000003	71.03344750421979	-41.33448333151573	-1.039076492892845e-12	80.38799999999991	-84.66000000000004	5.05043721578303e-13	2.071017320375504e-12	0	-114.0000000000003	-139.067795130823
26.94945096969604	52.5	-0.7	0.0500000000000003	70.2752675767191	-40.57630341355372	-1.039076492892845e-12	80.38799999999991	-84.66000000000004	5.05043721578303e-13	2.071017320375504e-12	0	-114.0000000000003	-139.067795130823
26.95344996452332	52.5	-0.7	0.0500000000000003	70.27522060326551	-41.05369757050467	-1.039076492892845e-12	80.38799999999991	-84.66000000000004	5.05043721578303e-13	2.071017320375504e-12	0	-114.0000000000003	-139.067795130823
26.95845603942871	52.5	-0.7	0.0500000000000003	68.07309365699274	-38.85151460801175	-1.039076492892845e-12	80.38799999999991	-84.66000000000004	5.05043721578303e-13	2.071017320375504e-12	0	-114.0000000000003	-139.067795130823
26.97346186637878	52.5	-0.7	0.0500000000000003	68.07301509035726	-39.64962772928686	-1.039076492892845e-12	80.38799999999991	-84.66000000000004	5.05043721578303e-13	2.071017320375504e-12	0	-114.0000000000003	-139.067795130823
26.97846388816833	52.5	-0.7	0.0500000000000003	66.91071906803282	-38.48723827751454	-1.039076492892845e-12	80.38799999999991	-84.66000000000004	5.05043721578303e-13	2.071017320375504e-12	0	-114.0000000000003	-139.067795130823
26.98344898223877	52.5	-0.7	0.0500000000000003	66.91065979899091	-39.08929829354079	-1.039076492892845e-12	80.38799999999991	-84.66000000000004	5.05043721578303e-13	2.071017320375504e-12	0	-114.0000000000003	-139.067795130823
26.98745083808899	52.5	-0.7	0.0500000000000003	66.29720354141409	-38.47577155916117	-1.039076492892845e-12	80.38799999999991	-84.66000000000004	5.05043721578303e-13	2.071017320375504e-12	0	-114.0000000000003	-139.067795130823
26.99246311187744	52.5	-0.7	0.0500000000000003	66.2971398670265	-39.12267772879235	-1.039076492892845e-12	80.38799999999991	-84.66000000000004	5.05043721578303e-13	2.071017320375504e-12	0	-114.0000000000003	-139.067795130823
27.00145578384399	52.5	-0.7	0.0500000000000003	66.29701077370267	-41.07934750834548	-1.039076492892845e-12	80.38799999999991	-84.66000000000004	5.05043721578303e-13	2.071017320375504e-12	0	-114.0000000000003	-139.067795130823
27.0074679851532	52.5	-0.7	0.0500000000000003	65.70010728867874	-40.48221461274779	-1.039076492892845e-12	80.38799999999991	-84.66000000000004	5.05043721578303e-13	2.071017320375504e-12	0	-114.0000000000003	-139.067795130823
27.01145195960999	52.5	-0.7	0.0500000000000003	65.7000355447785	-41.20940075975906	-1.039076492892845e-12	80.38799999999991	-84.66000000000004	5.05043721578303e-13	2.071017320375504e-12	0	-114.0000000000003	-139.067795130823
27.0184497833252	52.5	-0.7	0.0500000000000003	65.1570969969986	-40.66637684101284	-1.039076492892845e-12	80.38799999999991	-84.66000000000004	5.05043721578303e-13	2.071017320375504e-12	0	-114.0000000000003	-139.067795130823
27.02448201179504	52.5	-0.7	0.0500000000000003	65.15701480290761	-41.49818453543835	-1.039076492892845e-12	80.38799999999991	-84.66000000000004	5.05043721578303e-13	2.071017320375504e-12	0	-114.0000000000003	-139.067795130823
27.03348779678345	52.5	-0.7	0.0500000000000003	64.48782567542727	-40.82889754580643	-1.039076492892845e-12	80.38799999999991	-84.66000000000004	5.05043721578303e-13	2.071017320375504e-12	0	-114.0000000000003	-139.067795130823
27.04044580459595	52.5	-0.7	0.0500000000000003	64.04041077487494	-40.38148266086875	-1.039076492892845e-12	80.38799999999991	-84.66000000000004	5.05043721578303e-13	2.071017320375504e-12	0	-114.0000000000003	-139.067795130823
27.04645299911499	52.5	-0.7	0.0500000000000003	63.14647545534292	-39.48754732402626	-1.039076492892845e-12	80.38799999999991	-84.66000000000004	5.05043721578303e-13	2.071017320375504e-12	0	-114.0000000000003	-139.067795130823
27.05144691467285	52.5	-0.7	0.0500000000000003	63.14635556799728	-40.69670167780754	-1.039076492892845e-12	80.38799999999991	-84.66000000000004	5.05043721578303e-13	2.071017320375504e-12	0	-114.0000000000003	-139.067795130823
27.05746412277222	52.5	-0.7	0.0500000000000003	62.38145425337349	-39.93165754205314	-1.039076492892845e-12	80.38799999999991	-84.66000000000004	5.05043721578303e-13	2.071017320375504e-12	0	-114.0000000000003	-139.067795130823
27.06345176696777	52.5	-0.7	0.0500000000000003	62.38128957525398	-41.5851602814985	-1.039076492892845e-12	80.38799999999991	-84.66000000000004	5.05043721578303e-13	2.071017320375504e-12	0	-114.0000000000003	-139.067795130823
27.06750297546387	52.5	-0.7	0.0500000000000003	61.50043857824718	-40.70411293914893	-1.039076492892845e-12	80.38799999999991	-84.66000000000004	5.05043721578303e-13	2.071017320375504e-12	0	-114.0000000000003	-139.067795130823
27.07545709609985	52.5	-0.7	0.0500000000000003	61.01711284259039	-40.22078722467666	-1.039076492892845e-12	80.38799999999991	-84.66000000000004	5.05043721578303e-13	2.071017320375504e-12	0	-114.0000000000003	-139.067795130823
27.0824499130249	52.5	-0.7	0.0500000000000003	61.01694420710162	-41.90743864584822	-1.039076492892845e-12	80.38799999999991	-84.66000000000004	5.05043721578303e-13	2.071017320375504e-12	0	-114.0000000000003	-139.067795130823
27.08747482299805	52.5	-0.7	0.0500000000000003	60.9481920130443	-41.83848521772331	-1.039076492892845e-12	80.38799999999991	-84.66000000000004	5.05043721578303e-13	2.071017320375504e-12	0	-114.0000000000003	-139.067795130823
27.09346675872803	52.5	-0.7	0.0500000000000003	60.94811193171039	-42.63794992406086	-1.039076492892845e-12	80.38799999999991	-84.66000000000004	5.05043721578303e-13	2.071017320375504e-12	0	-114.0000000000003	-139.067795130823
27.09746789932251	52.5	-0.7	0.0500000000000003	61.01953599746896	-42.7092784525104	-1.039076492892845e-12	80.38799999999991	-84.66000000000004	5.05043721578303e-13	2.071017320375504e-12	0	-114.0000000000003	-139.067795130823
27.10344076156616	52.5	-0.7	0.0500000000000003	61.2199227223961	-42.90966518079158	-1.039076492892845e-12	80.38799999999991	-84.66000000000004	5.05043721578303e-13	2.071017320375504e-12	0	-114.0000000000003	-139.067795130823
27.10744690895081	52.5	-0.7	0.0500000000000003	61.21979149863991	-44.21765232199982	-1.039076492892845e-12	80.38799999999991	-84.66000000000004	5.05043721578303e-13	2.071017320375504e-12	0	-114.0000000000003	-139.067795130823
27.11144590377808	52.5	-0.7	0.0500000000000003	61.35626179906288	-44.35396593787792	-1.039076492892845e-12	80.38799999999991	-84.66000000000004	5.05043721578303e-13	2.071017320375504e-12	0	-114.0000000000003	-139.067795130823
27.11645007133484	52.5	-0.7	0.0500000000000003	61.35617495932637	-45.21858526039757	-1.039076492892845e-12	80.38799999999991	-84.66000000000004	5.05043721578303e-13	2.071017320375504e-12	0	-114.0000000000003	-139.067795130823
27.12146401405334	52.5	-0.7	0.0500000000000003	61.3561736684659	-46.09549057758078	-1.039076492892845e-12	80.38799999999991	-84.66000000000004	5.05043721578303e-13	2.071017320375504e-12	0	-114.0000000000003	-139.067795130823
27.12743973731995	52.5	-0.7	0.0500000000000003	61.35617001622484	-47.00761491541596	-1.039076492892845e-12	80.38799999999991	-84.66000000000004	5.05043721578303e-13	2.071017320375504e-12	0	-114.0000000000003	-139.067795130823
27.13245010375977	52.5	-0.7	0.0500000000000003	61.48813956593038	-47.13947482547137	-1.039076492892845e-12	80.38799999999991	-84.66000000000004	5.05043721578303e-13	2.071017320375504e-12	0	-114.0000000000003	-139.067795130823
27.13745880126953	52.5	-0.7	0.0500000000000003	61.48796287080747	-48.89095113771748	-1.039076492892845e-12	80.38799999999991	-84.66000000000004	5.05043721578303e-13	2.071017320375504e-12	0	-114.0000000000003	-139.067795130823
27.14244604110718	52.5	-0.7	0.0500000000000003	61.61677230741265	-49.01954937570616	-1.039076492892845e-12	80.38799999999991	-84.66000000000004	5.05043721578303e-13	2.071017320375504e-12	0	-114.0000000000003	-139.067795130823
27.14843487739563	52.5	-0.7	0.0500000000000003	61.61653051695968	-51.40968325167156	-1.039076492892845e-12	80.38799999999991	-84.66000000000004	5.05043721578303e-13	2.071017320375504e-12	0	-114.0000000000003	-139.067795130823
27.15244102478027	52.5	-0.7	0.0500000000000003	61.35724082322501	-51.15010437897582	-1.039076492892845e-12	80.38799999999991	-84.66000000000004	5.05043721578303e-13	2.071017320375504e-12	0	-114.0000000000003	-139.067795130823
27.15745496749878	52.5	-0.7	0.0500000000000003	61.35705246201013	-53.0079549183197	-1.039076492892845e-12	80.38799999999991	-84.66000000000004	5.05043721578303e-13	2.071017320375504e-12	0	-114.0000000000003	-139.067795130823
27.16547298431396	52.5	-0.7	0.0500000000000003	60.78027174730259	-52.4309488523002	-1.039076492892845e-12	80.38799999999991	-84.66000000000004	5.05043721578303e-13	2.071017320375504e-12	0	-114.0000000000003	-139.067795130823
